<?xml version="1.0" encoding="utf-8"?>
<!-- Generator: Adobe Illustrator 25.1.0, SVG Export Plug-In . SVG Version: 6.00 Build 0)  -->
<svg version="1.1" id="Layer_1" xmlns="http://www.w3.org/2000/svg" xmlns:xlink="http://www.w3.org/1999/xlink" x="0px" y="0px"
	 width="478.9px" height="438px" viewBox="0 0 478.9 438" style="enable-background:new 0 0 478.9 438;" xml:space="preserve">
<style type="text/css">
	.st0{fill:#FCBAC3;}
	.st1{fill:#F3DADE;}
	.st2{fill:#F38191;}
</style>
<path class="st0" d="M153.3,204.4L76.7,71.9L39,92.5l121.1,227.4C153.2,281.8,150.9,243,153.3,204.4z"/>
<path class="st1" d="M311,372.4c62.5,0,113.1-50.6,113.1-113.1c0.3-10.8-1.3-21.7-4.6-32c2,22.1-2.3,44.3-12.6,64
	c-29.3,54.6-97,75.5-152,46.8c-26.4-14.1-45.9-38.5-53.7-67.4C204.9,328.4,253.1,373.1,311,372.4z"/>
<path class="st1" d="M26.5,228.4L5.9,267.3l174.8,92.5c-14.9-19.1-25-41.4-29.7-65.1L26.5,228.4z"/>
<path class="st1" d="M308.7,93.6C384.2,93.2,450.5,144,469.8,217c-7.1-53.4-39.4-100.1-86.8-125.7C316.5,55.6,234.3,69.2,183,124.5
	v26.3C215,114.9,260.6,94.2,308.7,93.6z"/>
<path class="st2" d="M311,90.2c-48.1,0-93.7,21.3-124.5,58.3V1.1H143v258.2c1.3,92.1,76.9,165.8,169.1,164.5c0,0,0,0,0,0
	c92.1,0,166.8-74.7,166.8-166.8v0C477.7,164.9,403,90.8,311,90.2z M311,369c-62.5,0-113.1-50.6-113.1-113.1
	c0-62.5,50.6-113.1,113.1-113.1c62.5,0,113.1,50.6,113.1,113.1v0c0.6,61.8-49,112.5-110.8,113.1C312.5,369,311.7,369,311,369z"/>
</svg>
