<?xml version="1.0" encoding="utf-8"?>
<!-- Generator: Adobe Illustrator 25.1.0, SVG Export Plug-In . SVG Version: 6.00 Build 0)  -->
<svg version="1.1" id="Layer_1" xmlns="http://www.w3.org/2000/svg" xmlns:xlink="http://www.w3.org/1999/xlink" x="0px" y="0px"
	 width="40px" height="40px" viewBox="0 0 40 40" style="enable-background:new 0 0 40 40;" xml:space="preserve">
<style type="text/css">
	.st0{fill:#F16D7F;}
</style>
<path class="st0" d="M20,37l-3.5,2.9L14.2,36L10,37.5L9.2,33H4.7l0.7-4.5l-4.2-1.6l2.2-4L0,20l3.4-3l-2.2-4l4.2-1.6L4.7,6.9h4.5
	L10,2.4l4.2,1.5L16.5,0L20,2.9L23.5,0l2.3,3.9L30,2.4l0.8,4.5h4.5l-0.7,4.5l4.2,1.6l-2.2,4l3.4,3l-3.4,2.9l2.2,4l-4.2,1.6l0.7,4.5
	h-4.5L30,37.5L25.8,36l-2.3,3.9L20,37z M21.2,35.5L23,37l1.1-2l0.8-1.3l1.5,0.5l2.1,0.8l0.5-2.3l0.2-1.6h3.9l-0.4-2.3l-0.2-1.6
	l1.4-0.5l2.1-0.8l-1.1-2l-0.7-1.4l1.1-1l1.8-1.5l-1.8-1.5l-1.1-1.1l0.7-1.3L36,14l-2.1-0.8l-1.4-0.5l0.2-1.6l0.4-2.3h-3.9L29,7.2
	L28.5,5l-2.1,0.7l-1.5,0.6l-0.8-1.4l-1.1-2l-1.8,1.5l-1.2,1l-1.2-1L17,2.9l-1.1,2l-0.8,1.4l-1.5-0.6L11.5,5L11,7.2l-0.2,1.6H6.9
	l0.4,2.3l0.2,1.6l-1.4,0.5L3.9,14l1.2,2.1l0.7,1.3l-1.1,1.1L2.9,20l1.7,1.5l1.2,1l-0.7,1.4l-1.2,2l2.2,0.8l1.4,0.6l-0.2,1.5
	l-0.4,2.3h3.9l0.2,1.6l0.5,2.3l2.1-0.8l1.5-0.5l0.8,1.3l1.1,2l1.8-1.5l1.2-1L21.2,35.5z M21.3,23c0-2.9,1.6-4.5,3.5-4.5
	s3.3,1.5,3.3,4.3s-1.6,4.6-3.4,4.6S21.3,25.9,21.3,23z M22.8,22.9c0,1.9,0.7,3.3,1.9,3.3s1.9-1.4,1.9-3.3s-0.5-3.2-1.9-3.2
	S22.8,21.1,22.8,22.9z M15.2,27.3l8.4-14.7h1.2l-8.4,14.7H15.2z M12,17c0-2.9,1.5-4.5,3.4-4.5s3.4,1.5,3.4,4.3s-1.6,4.6-3.5,4.6
	S12,19.9,12,17z M13.5,16.9c0,1.9,0.7,3.3,1.9,3.3s1.8-1.4,1.8-3.3s-0.5-3.3-1.8-3.3S13.5,15.1,13.5,16.9z"/>
</svg>
